/* XPM */
static char *result[] = {
/* columns rows colors chars-per-pixel */
"128 128 90 1 ",
"  c #000000",
". c #0C0304",
"X c #0D0D0D",
"o c #110406",
"O c #170608",
"+ c #190609",
"@ c #1F080B",
"# c #121212",
"$ c #1C1C1C",
"% c #24090D",
"& c #2A0A0E",
"* c #310A0F",
"= c #2E0C10",
"- c #340D12",
"; c #3B0F14",
": c #2E1014",
"> c #371115",
", c #3D1015",
"< c #3A1519",
"1 c #3E1A1F",
"2 c #232323",
"3 c #3E2024",
"4 c #333333",
"5 c #3B3B3B",
"6 c #440F16",
"7 c #411117",
"8 c #451218",
"9 c #4C141A",
"0 c #54161D",
"q c #59171F",
"w c #59181F",
"e c #411D22",
"r c #4B1E24",
"t c #521A21",
"y c #5C1820",
"u c #631A23",
"i c #6C1C26",
"p c #701E27",
"a c #751F29",
"s c #452126",
"d c #49272B",
"f c #4B2A2E",
"g c #5B2027",
"h c #54272C",
"j c #53282E",
"k c #4E2D31",
"l c #572D32",
"z c #523236",
"x c #543539",
"c c #593B3F",
"v c #76202A",
"b c #7A212B",
"n c gray31",
"m c gray34",
"M c gray35",
"N c #614347",
"B c #6C4E52",
"V c #6B5054",
"C c #6F5558",
"Z c #615F5F",
"A c #745256",
"S c #775559",
"D c #636363",
"F c #7A6366",
"G c gray45",
"H c #83242F",
"J c #872530",
"K c #8C2731",
"L c #8F2833",
"P c #922934",
"I c #897174",
"U c #838383",
"Y c gray59",
"T c gray62",
"R c #A7A7A7",
"E c #ADA0A2",
"W c #ACACAC",
"Q c #B2B2B2",
"! c gray74",
"~ c #C4C4C5",
"^ c #CCCCCC",
"/ c #D5D3D4",
"( c #DDDDDD",
") c #E4E4E4",
"_ c #EDEDED",
"` c #F5F3F4",
"' c #F8F7F7",
"] c #F0F4F8",
"[ c white",
"{ c None",
/* pixels */
"{{{{{{{{{{{{{{{{{{{{{{{{{{{{{{{{{{{{{{{{--------------------------------------------------------{{{{{{{{{{{{{{{{{{{{{{{{{{{{{{{{",
"{{{{{{{{{{{{{{{{{{{{{{{{{{{{{{{{{{{{{{{{--------------------------------------------------------{{{{{{{{{{{{{{{{{{{{{{{{{{{{{{{{",
"{{{{{{{{{{{{{{{{{{{{{{{{{{{{{{{{{{{{{{{{------------------*>-----------------------------=--=---{{{{{{{{{{{{{{{{{{{{{{{{{{{{{{{{",
"{{{{{{{{{{{{{{{{{{{{{{{{{{{{{{{{{{{{{{{{---------------=-----=----=-------:=-----=----=--:--:--1{{{{{{{{{{{{{{{{{{{{{{{{{{{{{{{{",
"{{{{{{{{{{{{{{{{{{{{{{{{{{{{{{{{{{{{{{{{9999989900y00t0000w0000000000000wwww0ww0w0w0000000w000wgA{{{{{{{{{{{{{{{{{{{{{{{{{{{{{{{",
"{{{{{{{{{{{{{{{{{{{{{{{{{{{{{{{{-------,aaaaaaaaLPPPLPPPPPPPPPPPPPPPPPPPLLLPLLLLPPPPPPPPPPPPPPPL8--->>->{{{{{{{{{{{{{{{{{{{{{{{{",
"{{{{{{{{{{{{{{{{{{{{{{{{{{{{{{{{-------,paaaaaabLPPPPPPPPPPPPPPPPPPPPPPPLLPPPPPPPPPPPPPPPPPPPPPL8-------{{{{{{{{{{{{{{{{{{{{{{{{",
"{{{{{{{{{{{{{{{{{{{{{{{{{{{{{{{{-------;paaaaaabPPPPPPPPPPPPPPPPPPPPPPPPPPPPPPPPPPPPPPPPPPPPPPPL8-------{{{{{{{{{{{{{{{{{{{{{{{{",
"{{{{{{{{{{{{{{{{{{{{{{{{{{{{{{{{-------6aaaaaaaaLPPPPPPPPPPPPPPPPPPPPPPPPPLPPLPPPPPPPPPPPPPPPPPK8>=-*>*>{{{{{{{{{{{{{{{{{{{{{{{{",
"{{{{{{{{{{{{{{{{{{{{{{{{-------7uyyyyyuuJJJJJJKKPPPPPPPPPPPPPPPKw000w000ww0www0w00000w000000w00wpvppvvpp8>------{{{{{{{{{{{{{{{{",
"{{{{{{{{{{{{{{{{{{{{{{{{-------7aaaaaaaHPPPPPPPPPPPPPPPPPPPPPPPK7----------:-*=--->*---->**-----JPPPPPPL8-------{{{{{{{{{{{{{{{{",
"{{{{{{{{{{{{{{{{{{{{{{{{-------7aaaaaaaaLPPPPPPPPPPPPPPPPPPPPPPH,---------------*>*-----*>-----;bPPPPPPL8-------{{{{{{{{{{{{{{{{",
"{{{{{{{{{{{{{{{{{{{{{{{{-------7aaaaaaaHLPPPPPPPPPPPPPPPPPPPPPPK,--->*--->=>---->-->->->>>*>---,JPPPPPPL9-------{{{{{{{{{{{{{{{{",
"{{{{{{{{{{{{{{{{{{{{{{{{;;;;;;;8aaaaaaaaLPPPPPPPPPPPPPPPJKJJJKKb>*===:==&==&====&-&*&*&=&&&*===-vKJKKJKH0,,,7,,,{{{{{{{{{{{{{{{{",
"{{{{{{{{{{{{{{{{-------7pipiiiiaKLKPPPPLPPPPPPPPPPPPPPPJ877,7,7>...  .... .......  ..  ....  ...>,7,,,77vKJJJJJJ8-------{{{{{{{{",
"{{{{{{{{{{{{{{{{-------7aaaavavbPPPPPPPPPPPPPPPPPPPPPPPJ,--->*>&                                %>---->-bPPPPPPP9-------{{{{{{{{",
"{{{{{{{{{{{{{{{{-------7aaaaaaabLPPPPPPPPPPPPPPPPPPPPPPJ,------=.                               &------>bPPPPPPL9-------{{{{{{{{",
"{{{{{{{{{{{{{{{{-------7aaaaaaabPPPPPPPPPPPPPPPPPPPPPPPK,---;--&                                &------,HPPPPPPP9------*{{{{{{{{",
"{{{{{{{{{{{{{{{{-------7paaaaaabKPPPPPPPPPPPPPPLbavvvvau&%%%%%%@                                @%%%%%%&uvvvvvvvw000000t{{{{{{{{",
"{{{{{{{{{{{{{{{{-------7aaaaaaabPPPPPPPPPPPPPPPb,------=                                                &-----*;bPLLPPPL9>------",
"{{{{{{{{{{{{{{{{-------7aaaaaaabPPPPPPPPPPPPPPPJ;------=                                                %-------bPPPPPPP9-------",
"{{{{{{{{{{{{{{{{-------7aaaaaaabKPPPPPPPPPPPPPPJ;------=.                                               &------>bPPPPPPP9-------",
"{{{{{{{{{{{{{{{{-------6aavaaaabPPPPPPPPPPPPPPPJ;------=                                                &-----*;bPPPPPPP9>------",
"{{{{{{{{-------7uyyyyuquaaaaaaabLPPPPPPPPPPPPPPJ,-------                                                &-------bPPPPPPP9*------",
"{{{{{{{{-------7aaaaaaaaaaaaaaabKPPPPPPPPPPPPPLJ;------=.                                               &*>*>*>;bPPPPPPP9>------",
"{{{{{{{{-------8aaaaaaaaaaaaaaabPPPPPPPPPPPPPPPJ,------=                                                &**>*>*-bPPPPPPL9*------",
"{{{{{{{{-------8aaaaaaaaaaaaaaabPPPPPPPPPPPPPPPJ;------=.                                               %>-->--;bPPPPPPP9-------",
"{{{{{{{{-------6aaaaaabaaaaaaaabPPPPPLLPPPPPPPPb,------=        #$$$$$$$                        #$$$$$$$>---*-->bPPPPPPL0-------",
"{{{{{{{{-------8aaaaaaaaaaaaaaaaaHaaaaaJLPPPPPPJ;------=       $~((((((~2                      XQ((((((/c*--*>*-bPPPPPPP9-------",
"{{{{{{{{-------8aaaaaaaaaaaaaaaaaaaaaaabPPPPPPPJ,------=.      $)[[[['[_2                      X^[[[[[['N*--;*>>bPPPPPPL9-------",
"{{{{{{{{-------6aaaaaaaavaaaaaaaaaaaaaaaLPPPPPLJ;------=       $)[[[[[[)2                      X^[[[[[[`N*--*>*>HPPPPPPL9-------",
"{{{{{{{{-------6aaaaaaaaaaaaaaaaaaaaaaaaPPPPPPPJ,------=       2)[[[[[[)2                      X^[[[[[[`N*-*>*><bPPPPPPP9-------",
"{{{{{{{{-------8aaaaaaaauuyuuyuuaaaaaaabPPPPPPPJ;------=       $)[[[[[[_2                      X^[[[[[[`N*------bPPPPPPL9-------",
"{{{{{{{{-------8aaaaaaau-------7aaaaaaabPPPPPPPJ,------=       $([[[[[[)2                      X^[[[[[[`N*-----;bPPPPPPP9-------",
"{{{{{{{{-------8aaaaaaai-------7paaaaaabLPPPPPPb,------=.      2)[[[[[[)2                      X^[[[[[[`N*------bPPPPPPL9-------",
"{{{{{{{{-------8aaaaaaau;------7paaaaaabLPPPPPPJ,------=       $([[[[[[)2                      X^[[[[[[`N*-----;bPPPPPPL9-------",
"{{{{{{{{-------8aaaaaaai-------,aaaaaaabPPPPPPPJ;------=       $)[[[[[[)2                      #^[[[[[['N*-----;JPPPPPLL9-------",
"{{{{{{{{{{{{{{{{99999998-------7paaaaaabPPPPPPPJ;------=.      XmDDDDDDMX                       nDDDDDDZ3------>iJJbJbJb8-------",
"{{{{{{{{{{{{{{{{---------------6paaaaaabPPPPPPPJ;------=                                                %-------uaaaaaap8,------",
"{{{{{{{{{{{{{{{{---------------8paaaaaabPPPPPPPb;------=.                                               &------;uaaaaaaa8-------",
"{{{{{{{{{{{{{{{{---------------7aaaaaaabPPPPPPPJ;------=                                                =-------uaaaaaav8-------",
"{{{{{{{{{{{{{{{{---------------7aaaaaaaaKKLPLLKJ7;;,,;,-o.   .                                          &-------uaaaaaap8-------",
"{{{{{{{{{{{{{{{{{{{{{{{{-------7aaaaaaaabvbvvbvbJJJJJJJb>===-==%                                        =------,uvaaaaaa8-------",
"{{{{{{{{{{{{{{{{{{{{{{{{-------7aaaaaaaavaaavaabLPPPPPPJ;------=.                                       %-------uvaavaaa8-------",
"{{{{{{{{{{{{{{{{{{{{{{{{-------;paaaaaaaaaaaaaabPPPPPPPJ,------=                                        =-------ubaaaaaa8-------",
"{{{{{{{{{{{{{{{{{{{{{{{{------=6aaaaaaaaaaaaaaabLPPPPPPJ;----*-=.                                       %------;ivaaaaaa8*------",
"{{{{{{{{{{{{{{{{{{{{{{{{->esdkkjuuyuuuyuvaaaaaabJKJKKJJbt8888997O..oooo.                        .oo.o.oO;8888888wuuuuyuuhkffse,-",
"{{{{{{{{{{{{{{{{{{{{{{{{{{{{{{{{>----->,aaaaaaaaaaaaaaaaaabaaaap,------=                        &-------uvbvvvva8*;*----{{{{{{{{",
"{{{{{{{{{{{{{{{{{{{{{{{{{{{{{{{{**>*>*-,paaaaaaaaaaaaaaaaaaaaaai,-------                        =------;iaaaaaaa8-------{{{{{{{{",
"{{{{{{{{{{{{{{{{{{{{{{{{{{{{{{{{*>--*>-,paaaaaaaaaaaaaaaaaaaaaai;------=.                       &-------uaaaaaap8-------{{{{{{{{",
"{{{{{{{{{{{{{{{{{{{{{{{{{{{{{{{{>*>*-*-7paaaaaaaaaaaaaaaaaaaaaai;-------                        &------;iaaaaaba8-------{{{{{{{{",
"{{{{{{{{{{{{{{{{{{{{{{{{{>edkzxlyyyyyyyy99t9999099909990aaaaaaaayyyyqyy0&%@@@@@@@@@%@@@@@@@@@@@%9yyyyyyy0999999tB{{{{{{{{{{{{{{{",
"{{{{{{{{{{{{{{{{{{{{{{{{-------8aaaaaaai>---=-------;**,iaaaaaaavaaaaaap,-----------;----------;iaaaaaaa8=-----<{{{{{{{{{{{{{{{{",
"{{{{{{{{{{{{{{{{{{{{{{{{-------,aaaaaaai>-----------*;-,paaaaaaaaaaaaaap;----------------------;uaaaaaaa8-------{{{{{{{{{{{{{{{{",
"{{{{{{{{{{{{{{{{{{{{{{{{-------8paaaaaai;--------:-----,aaaaaaaaaaaaaaai;-----------------------aaaaaaaa8-------{{{{{{{{{{{{{{{{",
"{{{{{{{{{{{{{{{{{{{{{{{{;;;;-;;8aababaap,,;,;;;;,;,;;,,6aabbabaabvvvbaHa8;,,,,,,,,,,;>,,,,,,,,;,iaaaaaaa8;-;;;;,I{{{{{{{{{{{{{{{",
"{{{{{{{{{{{{{{{{-><11eeriiiiaiiaKKKPKPKKJJJJJJJJHJHJJJHJKKKLLLKLLKLLKLPPHHJHHJHHJJHHHJJHHHJHHJHJKLLLKLLKaiiiiiiih1,-----{{{{{{{{",
"{{{{{{{{{{{{{{{{-------7aaaaaaaaPPPPPPPPPPPPPPLPPPPPPPPPPPPPPPPPPPPPPPPPPPPPPPPPPPPPPPPPPPPPPPPPPPPPPPPPJaaaaaaa6-------{{{{{{{{",
"{{{{{{{{{{{{{{{{-------,aaaaaaabPPPPPPPPPPPPPPPPPPPPPPPPPPPPPPPPPPPPPPPPPPPPPPPPPPPPPPPPPPPPPPPPPPPPPPPPbaaaaaap7-------{{{{{{{{",
"{{{{{{{{{{{{{{{{-------8aaaaaaabKPPPPPPPPPPPPPPPPPPPPPPPPPPPPPPPPPPPPPPPPPPPPPPPPPPPPPPPPPPPPPPPPPPPPPPPbaaaaaaa7-------{{{{{{{{",
"{{{{{{{{{{{{{{{{-------8paaaaaabPPPPPPPPPPPPPPPPPPPPPPPPPPPPPPPPPPPPPPPPPPPPPPPPPPPPPPPPPPPPPPPPPPPPPPPPbaaaaaap8-------{{{{{{{{",
"{{{{{{{{{{{{{{{{-------,paaaaaabPPPPPPPPPPPPPPPPPPPPPPPPPPPPPPPPPPPPPPPPPPPPPPPPPPPPPPPPPPPPPPPPPPPPPPPPbaaaaaaa8-------{{{{{{{{",
"{{{{{{{{{{{{{{{{-------8aaaaaaabKPPPPPPPPPPPPPPPPPPPPPPPPPPPPPPPPPPPPPPPPPPPPPPPPPPPPPPPPPPPPPPPPPPPPPPPbaaaaaaa7-------{{{{{{{{",
"{{{{{{{{{{{{{{{{-------8paaaaaaaPPPPPPPPPPPPPPPPPPPPPPPPPPPPPPPPPPPPPPPPPPPPPPPPPPPPPPPPPPPPPPPPPPPPPPPPaaaaaaaa8-------{{{{{{{{",
"{{{{{{{{{{{{{{{{-------8aaaaaaaaPPPPPPPPPPPPPPPPPPPPPPPPPPPPPPPPPPPPPPPPPPPPPPPPPPPPPPPPPPPPPPPPPPPPPPPPbvvaaaap7------>{{{{{{{{",
"{{{{{{{{-,efkxxlyqyyyyqiJJJJJJJJPPPPPPPPPPPPPPPPPPPPPPPPPPPPPPPPPPPPPPPPPPPPPPPPPPPPPPPPPPPPPPPPPPPPPPPPKKJJJJJb,-------{{{{{{{{",
"{{{{{{{{---->--7aaaaaaaHPPPPPPPPPPPPPPPPPPPPPPPPPPPPPPPPPPPPPPPPPPPPPPPPPPPPPPPPPPPPPPPPPPPPPPPPPPPPPPPPPPPPPPPJ;-------{{{{{{{{",
"{{{{{{{{-------8aaaaaaaaPPPPPPPPPPPPPPPPPPPPPPPPPPPPPPPPPPPPPPPPPPPPPPPPPPPPPPPPPPPPPPPPPPPPPPPPPPPPPPPPPPPPPPPJ;-------{{{{{{{{",
"{{{{{{{{-------7paaaaaaaPPPPPPPPPPPPPPPPPPPPPPPPPPPPPPPPPPPPPPPPPPPPPPPPPPPPPPPPPPPPPPPPPPPPPPPPPPPPPPPPPPPPPPPb;-------{{{{{{{{",
"{{{{{{{{----->-7aaaaaaaHPPPPPPPPPPPPPPPPPPPPPPPPPPPPPPPPPPPPPPPPPPPPPPPPPPPPPPPPPPPPPPPPPPPPPPPPPPPPPPPPPPPPPPPJ,-------{{{{{{{{",
"{{{{{{{{-------7aaaaaaaaPPPPPPPPPPPPPPPPPPPPPPPPPPPPPPPPPPPPPPPPPPPPPPPPPPPPPPPPPPPPPPPPPPPPPPPPPPPPPPPPPPPPPPPJ;-------{{{{{{{{",
"{{{{{{{{-------7paaaaaaaPPPPPPPPPPPPPPPPPPPPPPPPPPPPPPPPPPPPPPPPPPPPPPPPPPPPPPPPPPPPPPPPPPPPPPPPPPPPPPPPPPPPPPPJ,-------{{{{{{{{",
"{{{{{{{{-------8aaaaaaaaPPPPPPPPPPPPPPPPPPPPPPPPPPPPPPPPPPPLLPPPPPPPPPPPPPPPPPPPPPPPPPPPPPPPPPPPPPPPPPPPPPPPPPPb,-------{{{{{{{{",
"{{{{{{{{-------7paaaaaaaPPPPPPPPPPPPPPPPPPPPPPPPPPPPPPPPPPPPPPPPPPPPPPPPPPPPPPPPPPPPPPPPPPPPPPPPPPPPPPPPPPPPPPPJ;-------{{{{{{{{",
"{{{{{{{{-------8aaaaaaaHPPPPPPPPPPPPPPPPPPPPPPPPPPPPPPPPPPPPPPPPPPPPPPPPKKKKKKJKPPPPPPPPPPPPPPPPPPPPPPPPPPPPPPPJ98888888{{{{{{{{",
"{{{{{{{{-------8paaaaaaaPPPPPPPPPPPPPPPPPPPPPPPPPPPPPPPPPPPPPPPPPPPPPPPLbvaaaaavLPPPPPPPPPPPPPPPPPPPPPPPPPPPPPPLbvaaaaai;-------",
"{{{{{{{{-------6aaaaaaaHPPPPPPPPPPPPPPPPPPPPPPPPPPPPPPPPPPPPPPPPPPPPPPPLaaaaaaavLPPPPPPPPPPPPPPPPPPPPPPPPPPPPPPLvaaaaaai,-------",
"{{{{{{{{<------6aaaaaaaaPPPPPPPPPPPPPPPPPPPPPPPPPPPPPPPPPPPPPPPPPPPPPPPLaaaaaaavLPPPPPPPPPPPPPPPPPPPPPPPPPPPPPPPaaaaaaap;-------",
"{{{{{{{E>=-=--*6aaaaaaaHPPPPPPPPPPPPPPPPPPPPPPPPPPPPPPPPPPPPPPPPPLPPLPPLHaaaaaabLPPLPPLPPPPPPPPPPPPPPPPPPPPPPPPPbaaaaaap;-------",
"VBVVVSFSyyyyyyquaaaaaaaaPPPPPPPPPPPPPPPPPPPPPPPPPPPPPPPPPPPPPPPPHHHHHHHa00909000aJbJJbJJPPPPPPPPPPPPPPPPJbJbJJbbaaaaaaai;-------",
"------*6aaaaaaaaaaaaaaaHPPPPPPPPPPPPPPPPPPPPPPPPPPPPPPPPPPPPPPPPaaaaaaaa;------;iaaapaabPPPPPPPPPPPPPPPKaaaaaaaaaaaaaaai;-------",
"-------8paaaaaaaaaaaaaaaPPPPPPPPPPPPPPPPPPPPPPPPPPPPPPLPPPPPPPPPaaaaaaap;------;iaaaaaabPPPPPPPPPPPPPPPLaaaaaaaaaaaaaabi;-------",
"-------8aaaaaaaaaaaaaaaHPPPPPPPPPPPPPPPPPPPPPPPPPPPPPPPPPPPPPPPPaaaaaaap;------7aaaaaaabPPPPPPPPPPPPPPPKaaaaaaaaaaaaaaai;-------",
"-------8aaaaaaaaaaaaaaaaLLLPLLPPPPPPPPPPPLLPPKPLPPPPPPPPKPPPPLPLaaaaaaap6------7aaaaaaabLPPPLPLLPPPPPPPLaaaaaaaaaaaaaaai;-------",
"-------8aaaaaaaaaaaaaaaaaaHaaHaJPPPPPPPPbbbbvbbHPPPPPPPLaaaHaHaaaaaaaaap;------8aaaaaaaabbbbbaaJPPPPPPPKaaaaaaaaaaaaaaap;-------",
"-------8aaaaaaaaaaaaaaaaaaaaaaaaPPPPPPPKbaaaaaaaPPPPPPPLaaaaaaaaaaaaaaai;------8aaaaaaaaaaaaaaabLPPPPPPLaaaaaaaaaaaaaaai,-------",
"-------8aaaaaaaaaaaaaaaaaaaaaaaHPPPPPPPLaaaaaaavPPPPPPPLHaaaaaaaaaaaaaau-------8aaaaaaaaaaaaaaabPPPPPPPLHaaaaaaaaaaaaaai;-------",
"-------8aaaaaaaaaaaaaaaaaaaaaaaaPPPPPPPPbaaaaaabPPPPPPPLaaaaaaaaaHaaaaau;------8aaaaaaaaaaaaaaabPPPPPPPLaaaaaaaabaaaaaap;-------",
"-------8aaaaaavaaaaaaaaaaaaaaaaaKKKKKKKKbHbbHbbHLLKKKKKJaaaaaaaauuuuuuu0%%&%%%%-uuuuuuuiaaaaaaaaJKKKKKKJaaaaaaaauuuuuuuu;-------",
"-------8aaaaaaaaaaaaaaaaaaaaaaaaaaaaaaaaLPPPPPPKaaaaaaaaaaaaaaap6----;-&       o-------8aaaaaaaaaaaaaaaaaaaaaaai,---;---{{{{{{{{",
"--*---*8paaaaaaaaaaaaaaaaaaaaaaaaaaaaaaHPPPPPPPKaaaaaaaaaaaaaaau;------&       o-------8aaaaaaaaaaaaaaaaaaaaaaai;-------{{{{{{{{",
"*>>--->8vaaaaaaaaaaaaaaaaaaaaaaaaaaaaaaaKPPPPPPLaaaaaaaaaaaaaaau-------%       .-------7paaaaaaaaaaaaaaaaaaaaaap;-------{{{{{{{{",
"-------8aaaaaaaaaaaaaaaaaaaaaaaaaaaaaaaaKLPPPPPKaaaaaaaaaaaaaaau-------%       .-------7paaaaaaaaaaaaaaaaaaaaaai;-------{{{{{{{{",
"-------8aaaaaavit900090yaaaaaaaaaaaaaaaaHHHHHHHHaaaaaaaaq090090;++O+O+Oo       .-------7aaaaaaaaaaaaaaapt90990t9--------{{{{{{{{",
"----*-*8aaaaaaau-------6aaaaaaaaaaaaaaaaaaaaaaaaaaaaaaau-----=-%               .-------7paaaaaaaaaaaaaai----------------{{{{{{{{",
"-->->*>8paaaaabu-------6aaaaaaaaaaaaaaaaaaaaaaaaaaaaaaau-------%               .-------;aaaaaaaaaaaaaaai;---------------{{{{{{{{",
"-------8aaaaaaau-------8aaaaavaaaaaaaaaaaaaaaaaaaaaaaaau-------&               .-------7aaaaavaaaaaaaaai**;*>*----------{{{{{{{{",
"---;---8pippiaau-------7iiiapppppppppppaaaaaaaaaaaaaaaau-------%               .==--=-=7ipppaiaaaaaaaaai,;;;;;;;--------{{{{{{{{",
"{{{{{{{{77777,7;-------;777;7;77;7777;78aaaaaaaaaaaaaaau-------%                ... ...o;7;7,7,8aaaaaaaaiiiiuiiy>-------{{{{{{{{",
"{{{{{{{{-------------------------------,iaaaaaaaaaaaaaau-------&                       .-------,paaaaaaaaaaaabai;-------{{{{{{{{",
"{{{{{{{{-------------------------------7aaaaaaaaaaaaaaau-------%                       .-------7aaaaaaaaaaaaaaai;*------{{{{{{{{",
"{{{{{{{{-------------------------------;aaavaaaaaaaaaaau-------%                       .-------7aaaaaaaaaaaaaaap;-------{{{{{{{{",
"{{{{{{{{-------------------------------ruuuuuuuuiuuuuuu0------;&                       .-------,uuuuuuuuuuuuuuuy;>------{{{{{{{{",
"{{{{{{{{{{{{{{{{{{{{{{{{{{{{{{{{{{{{{{{{>--;;-;----;-----------%                       .&-------;*;*;*;;;-;--;>;{{{{{{{{{{{{{{{{",
"{{{{{{{{{{{{{{{{{{{{{{{{{{{{{{{{{{{{{{{{-----------------------%                       .--------*---------------{{{{{{{{{{{{{{{{",
"{{{{{{{{{{{{{{{{{{{{{{{{{{{{{{{{{{{{{{{{-----------------------%                       .------------------------{{{{{{{{{{{{{{{{",
"{{{{{{{{{{{{{{{{{{{{{{{{{{{{{{{{{{{{{{{{---------;---------;---%                       .--------->--------------{{{{{{{{{{{{{{{{",
"{{{{{{{{{{{{{{{{{{{{{{{{{{{{{{{{{{{{{{{{{{{{{{{{{{{{{{{=+OOOOO+o                        {{{{{{{{{{{{{{{{{{{{{{{{{{{{{{{{{{{{{{{{",
"{{{{{{{{{{{{{{{{{{{{{{{{{{{{{{{{{{{{{{{{{{{{{{{{{{{{{{{{                                {{{{{{{{{{{{{{{{{{{{{{{{{{{{{{{{{{{{{{{{",
"{{{{{{{{{{{{{{{{{{{{{{{{{{{{{{{{{{{{{{{{{{{{{{{{{{{{{{{{                                {{{{{{{{{{{{{{{{{{{{{{{{{{{{{{{{{{{{{{{{",
"{{{{{{{{{{{{{{{{{{{{{{{{{{{{{{{{{{{{{{{{{{{{{{{{{{{{{{{{                                {{{{{{{{{{{{{{{{{{{{{{{{{{{{{{{{{{{{{{{{",
"{{{{{{{{{{{{{{{{{{{{{{{{{{{{{{{{{{{{{{{{{{{{{{{{{{{{{{{{      XX                X#X#####{{{{{{{{{{{{{{{{{{{{{{{{{{{{{{{{{{{{{{{{",
"{{{{{{{{{{{{{{{{{{{{{{{{{{{{{{{{{{{{{{{{{{{{{{{{{{{{{{{{{{{{{{{U               4!Y{{{{{{{{{{{{{{{{{{{{{{{{{{{{{{{{{{{{{{{{{{{{{{",
"{{{{{{{{{{{{{{{{{{{{{{{{{{{{{{{{{{{{{{{{{{{{{{{{{{{{{{{{{{{{{{{R               5){{{{{{{{{{{{{{{{{{{{{{{{{{{{{{{{{{{{{{{{{{{{{{{",
"{{{{{{{{{{{{{{{{{{{{{{{{{{{{{{{{{{{{{{{{{{{{{{{{{{{{{{{{{{{{{{{R               5({{{{{{{{{{{{{{{{{{{{{{{{{{{{{{{{{{{{{{{{{{{{{{{",
"{{{{{{{{{{{{{{{{{{{{{{{{{{{{{{{{{{{{{{{{{{{{{{{{{{{{{{{{{{{{{``WX              5){{{{{{{{{{{{{{{{{{{{{{{{{{{{{{{{{{{{{{{{{{{{{{{",
"{{{{{{{{{{{{{{{{{{{{{{{{{{{{{{{{{{{{{{{{{{{{{{{{{{{{{{{{{{{GTWQU               5({{{{{{{{{{{{{{{{{{{{{{{{{{{{{{{{{{{{{{{{{{{{{{{",
"{{{{{{{{{{{{{{{{{{{{{{{{{{{{{{{{{{{{{{{{{{{{{{{{{{{{{{{{  X  XX {{{{{{{{       5{{{{{{{{{{{{{{{{{{{{{{{{{{{{{{{{{{{{{{{{{{{{{{{{",
"{{{{{{{{{{{{{{{{{{{{{{{{{{{{{{{{{{{{{{{{{{{{{{{{{{{{{{{{        )_{{{{{{       5{{{{{{{{{{{{{{{{{{{{{{{{{{{{{{{{{{{{{{{{{{{{{{{{",
"{{{{{{{{{{{{{{{{{{{{{{{{{{{{{{{{{{{{{{{{{{{{{{{{{{{{{{{{        ___{{{{{       5{{{{{{{{{{{{{{{{{{{{{{{{{{{{{{{{{{{{{{{{{{{{{{{{",
"{{{{{{{{{{{{{{{{{{{{{{{{{{{{{{{{{{{{{{{{{{{{{{{{{{{{{{{{        )_{{{{{{       5{{{{{{{{{{{{{{{{{{{{{{{{{{{{{{{{{{{{{{{{{{{{{{{{",
"{{{{{{{{{{{{{{{{{{{{{{{{{{{{{{{{{{{{{{{{{{{{{{{{{{{{{{{{{{{{{{{{__{{{{{{       5{{{{{{{{{{{{{{{{{{{{{{{{{{{{{{{{{{{{{{{{{{{{{{{{",
"{{{{{{{{{{{{{{{{{{{{{{{{{{{{{{{{{{{{{{{{{{{{{{{{{{{{{{{{{{{{{{{{{{{{{{{{       5{{{{{{{{{{{{{{{{{{{{{{{{{{{{{{{{{{{{{{{{{{{{{{{{",
"{{{{{{{{{{{{{{{{{{{{{{{{{{{{{{{{{{{{{{{{{{{{{{{{{{{{{{{{{{{{{{{{{{{{{{{{       5{{{{{{{{{{{{{{{{{{{{{{{{{{{{{{{{{{{{{{{{{{{{{{{{",
"{{{{{{{{{{{{{{{{{{{{{{{{{{{{{{{{{{{{{{{{{{{{{{{{{{{{{{{{{{{{{{{{{{{{{{{{       5{{{{{{{{{{{{{{{{{{{{{{{{{{{{{{{{{{{{{{{{{{{{{{{{",
"{{{{{{{{{{{{{{{{{{{{{{{{{{{{{{{{{{{{{{{{{{{{{{{{{{{{{{{{{{{{{{{{{{{{{{{{XXXXXXX4{{{{{{{{{{{{{{{{{{{{{{{{{{{{{{{{{{{{{{{{{{{{{{{{",
"{{{{{{{{{{{{{{{{{{{{{{{{{{{{{{{{{{{{{{{{{{{{{{{{{{{{{{{{{{{{{{{{{{{{{{{{!!!!!!!~{{{{{{{{{{{{{{{{{{{{{{{{{{{{{{{{{{{{{{{{{{{{{{{{",
"{{{{{{{{{{{{{{{{{{{{{{{{{{{{{{{{{{{{{{{{{{{{{{{{{{{{{{{{{{{{{{{{{{{{{{{{`_`__`]{{{{{{{{{{{{{{{{{{{{{{{{{{{{{{{{{{{{{{{{{{{{{{{{{"
};
