/* XPM */
static char *result[] = {
/* columns rows colors chars-per-pixel */
"128 128 78 1 ",
"  c #577C3D",
". c #597E3E",
"X c #5E7E46",
"o c #5F7F48",
"O c #607E47",
"+ c #627F4A",
"@ c #657E51",
"# c #5E823F",
"$ c #62853F",
"% c #64893E",
"& c #5D8242",
"* c #638544",
"= c #668A44",
"- c #698C46",
"; c #65844B",
": c #69864D",
"> c #66894A",
", c #6B8D4C",
"< c #708F4F",
"1 c #6B9145",
"2 c #6D914D",
"3 c #70934E",
"4 c #678351",
"5 c #6A8653",
"6 c #6D8B54",
"7 c #6E8659",
"8 c #6E8B59",
"9 c #718D55",
"0 c #70875D",
"q c #728D5B",
"w c #798F5E",
"e c #6F9151",
"r c #739354",
"t c #799656",
"y c #759955",
"u c #799A56",
"i c #75935B",
"p c #79965D",
"a c #769A5A",
"s c #7B9A5D",
"d c #7BA05E",
"f c #758D62",
"g c #788F64",
"h c #769261",
"j c #7B9563",
"k c #7D9A63",
"l c #7C9669",
"z c #7E9A6A",
"x c #7EA264",
"c c #7FA168",
"v c #819B5D",
"b c #81A05F",
"n c #809764",
"m c #819C65",
"M c #80976B",
"N c #839D6A",
"B c #889F6A",
"V c #849C73",
"C c #889F72",
"Z c #879C78",
"A c #889D79",
"S c #83A165",
"D c #88A267",
"F c #82A866",
"G c #85A16B",
"H c #89A36D",
"J c #85A96B",
"K c #8BA96E",
"L c #86A273",
"P c #8BA472",
"I c #8DAA74",
"U c #8EA778",
"Y c #8FA978",
"T c #90A674",
"R c #91AA75",
"E c #90A77B",
"W c #93AC79",
"Q c #8EB077",
/* pixels */
"===-=*==%%=#=#.$***===>,rrr6,>>5eihhh868584>4oXo48e888eha8eeee22&&&>o4>>aadccddhsmmmSSSmmvmmmkkkppmSLIPABHLTEEULNxuuruvsur33-,,-",
"%$==-==$=%%==#$#$*=->>,,err86,,,8qhhh885665>&oXo88888h8h8aaeeey11&>>4o>8eaddcdccsmsmmkSmmmmmkmkuppkNLPPHGDLIPELHmsurtusuty311,-,",
"$%==========%&*&*>-6eeeerriree8eihhq864,554>;&&;46868eaa8aaeaed2e>e>>>>>eaddcccdmsktukmbkkkmmkuprasnNBNNmmBSCSNmsprtrttyr3,1--1,",
"$$==:-==========,-9asisirihihpphhhq86>&4444>;;;448668hhdddaaae2yee>aa>>>eeadxcccmutrrssssskSmsarrriskjpvkknmmjjprr3r<3333,-%%-11",
"$$*:=-,---,-,>>,-6rpjssijihlkkjhhfq74;**>4;;;;;;>44eahdcccdaaaaade8a8e&e3yudxxSxpty3rpssuskmmurr<<rpirrrttttrt99<<<<333<31=%%%11",
"X$*=:,,,22rr3reerrihspiaipkNNzkhfq8554;;;;4;;;44>4e48ahdcccccdaaadaaadaeyusbxddayrrryuuuurusspr<,<,,<,-<<<r<-<---,<rrt33<-=%%%%1",
"X$*>,,,rappaprrrrripiiqqihNNVNzhq88555::;;;;44>>444e8hdlcLLcccccdaaaaaaasddsayy333rttuurrripupr3,,-,-----<----=*=-<rtrr3--=%%%11",
"**>,,,rrusskkpaiirrrqqqipkNLLNzjrq8q85::4;4;4>8>e4888hlcccQLccccdddaddccxvdsur333yyuuutrarptarr32,-===-11<1-----=:<tpttr<-==%==-",
"**<9rrrasSNkksiirrr98qqrpkNLLCNljqiffq554;:,,65,4e88fhcVLLLLcLcczchzjkccsSssay3ruuusuprrapppprrr3,---233ryr33<<,,-3rttt3<=%%1-<-",
":<9tpursmSNkkjsarr86e8rrpsSGHGNkhgjjjq65445556958888hlcVLLQLZZZLczchjzkcmxxkau3yusmsutrrasupruur3<,,-3yrtptr3yy<<-<yytr9<--%-1:<",
"9rtskkkkmSkljsssiq999iassskmNmzkjjjjhp955555959988hhhhlccVZLZZZVzzzhjkzcSGGSmkppsSkkkprappsuusuuy333rrrairr3r33<,-,yrtt9:--<<<<<",
"psmNGSmmmmkhpkssppiiiakkkpkhkhpjjjnjsqq5557666578h8hhhhlcVcVZZZVZzzlhlzcHIIIHSmssmmmkupsssssssbsttryyrrrrrr3<2<,,,9tra99<<<93rr9",
"vmNGGGNNkkshpssshpiaskkkkkkkpppijjjjji9996565757hhflffhhhlVVVVZZzzzlllkzLUUUILNmNSNmkskskkkssksstyyryrrre6e2e,,,::9tpirt99titipp",
"mSNNNNkkkkkhhspppppskNGSSkkjkpshsjnljiq785555570fhffff8hhhhVVVZVZzzlkjkcLUUIPGNSNBNmmkkkmmksssvsy9r333er2222ee9,<<9rrtiitrtttssv",
"mNNNNkhjkkkpkhpiaiskcSGLLGNNkkpskknljqqq9555577qfffffhhhfhhllVVVVzzzjjjNLIICLGNLNLGNmkkSSNmsussar<,,,3re222eere9<<<rwtpptsptssnm",
"kkkkjhippkkkkppaasuskkzGGGGSSkhkkkjjjqqq68554700fffffhh8f8fhfllVzczzzzjzVLLNNNNNLLLNmnkkmcksaary<,,<23r22222errr99r9tipjsssjsjps",
"pjhjpiiripjkkjkassppihhkNGGGGNnkzkjhiqq787677770fffhlhchf88ffflllVVzzlllNNNNzzzcLGLNkkapchxayeee9,,,2errr22rrrtrr9rtrwippjjssp99",
"qqirreeiiaakkksksksiirapNSGLLNzNjkkhfq07q8q9970qfflllllhf888fffglllVlllhlljjkkkzNNNSkhriaha8eee23,r,r2rrr3r3rriirwt9riwijjkspq65",
"69r98eeeeiijkakskkiii8rpkkSNNMlljjhhfqqqq7q6687qffhllhhhh888880fllVlllhllllhkahjkjkjkpriiaeeeee2r9rrrrrrr3rryrtrrwriiqqiskkkpr,,",
",5668eeeeiipskakaajphqriskzNljjihhhhhq877qqqq578ffhlcha88847477ffllhlhhhjljjhiierpjsphi8qee22eyaryrrrrrrr9arrrit99wiirripskkpr65",
",:,5eqeeeiepihsaxkkhprrriijjgqqqiiqhh8888q88q68qfhlhchhh88887770fllhhhhhlljja8e26eraaiiree622eeirtirrir99riaiir9999iprrraskhir86",
",,,eeeeiyeeqrikkkxkkhirqiqqq075788hhh887888888qqhlchhhdhchhhfhhllllhhhhlMMMNki,,,,9rriii8e2>2eiaparptariiipipiq95:99arrrrriiirrr",
",ee,eiiriee6epkkxkmkjhiq887544+468qiq856785878fjhhhclzzcccchjzzNzllhhlczNNVSky,>2-eerrrree>2>e8aritaarrippispqq6<:9rrrrre9eeiiir",
"eeereeiiirqe8rpskkkjjjhh8654@++;468qq8856685qwfjcchcccccLLccGNVGzzzzccccLHLckae-2,6eerpre22>22ee9rartppwpqpppiq9:::996,66566eeer",
"aaarraiiprirqiiiqiaklzlg854;4;4;466888588568qhjkczzcccLLLLGLJHHGcALLKPIIIPKFSsree,,eerrr22-2,,ee9rtipipwqriiiiq95,,,,=;*=:>:,6,6",
"hpsaasphkpiiirrr8eqhkllg854:4;44668666885568qhhjlcccccJJGGGHHJGFccJYRRWWRIPGSssar232errr22>2e,669qqriipqiqqr9iair65,=*O**>;>,:,,",
"kksssskkkksirr6666iihlhh75:555559qq666555458qqhhhzccNJSGSGcGScSSNGLIIIIIPPFSkkkarre,2eare22>6>>6599999qq9q99riiq96,,>;OO*>;>>>,5",
"kkxkxkskzNkaq6,666qqihh87555,56eqiq86544445569ihhdhckkccSckjkkskNSFGHHGFFGSNxxksarreeipsre2e>>>4595997q9qrrr999rrr9<,>>>>;*>>,,6",
"ksksskskSNzpr82888iiiqqq86686eeqihq98>>>444668riiaskkkxxxkaaaaajkkxzcckkkkjkaxksprreqihaar,,>>;>,7759799qirqqrqqqrrq65,:>;>>>,66",
"aaaaauskzNzkpreeiriiiqqqqqq8qqqqihqq8886444788iihsakkxskkjhaiiisskkjpaairrisasaaayreeiiaire>>>:,759979qqiiiiiqiqiiiir965;>>=>,26",
"yryryiihzzzkksiihjhhaiiiahpiiiiiiiqi688888888iiiskssakksaiiiiiiiiiiireeee6eeqiaauarriiiipr8>*>:559655qiiijjhjhhjisspiqq5;;>>-,6e",
"e2eyrrijjkzzksasjjjjkhhjjjhhhhiiphihahhi8866e8risasaasuaaiiiierrqeee666>>>,eyaaksaariiairr6->>,7797699qihhhhjhhjhhkhjqq7:>>>2262",
"2y2yriphjzkNkkpphkkkjkkjjzlhsjjjwjjjlkMliq86e6erpapartrrrrrr9668e8e6>6>&&>6esskksaiaiiiire2>>4;65775999whhhhhhjjjjzjjgq67,,22222",
"232eriphjkzNNkphjkNzzkjzNzNkjjjpjjnnNNNzjiqeeeeerarrrrrry<e69,-,6e>>>>&&>>,iakxckaaiaaiaree>,>>6959579578fffhhjjjzzzlfqq862re32r",
"222rrrphkjzzkkhjlzzzzzkklNllnjjjnnnMNNNNjhieeeeerryrrrrr36,,>>>>>>e>&&&&&>5eskSSxssiipppieee,,>4:5709559888fhlljzjllghqqrrrryry2",
",22errriihjkljhjkkNNckkzlNnjjjskMMNnnnlnjksiyreeyrrruyryr,,>>**>>8>>>&  &;>erkmkxkspppkspri8e65>:77907::4477hgllllhhjjirrraaaayr",
"ee9r9riqqjgjjjjjllNzNzkkknnnljklnNNnkkjjjnsuyrrrryyttrr39<<:-**:>6>>&&&#&&&>eakkkjsjkkkjpriqa4>>:56q77:@;;47fhhljjjjjiiiiruusssa",
"rapapiqffqgppjfjjllmkNzNnNNNMMnnmnnnlsppsssuyrrruuutttrrtt<<:<<<8e62>&&#X&&>6eiaskkkkkkppiii84445788755:44458fhgjhhhjpiirrapssks",
"kkkkjhfqqfqpijjjjjkkkNNNNNNNNNnmkmkjspttpuuuuuuavvvttr9rtvw9<9ttqae>>&&&&&&,,66rphjcmnkspph88844566967554;45788hfhjkhspi9rrpsxxm",
"kkklgq077qqqqqjiifjjkknNNNNNBnnnkksvsi9rttuuuvbSDmmvpttisvt99tvpaae>>-&&&&&>,,,9ipkznkppphih888456888q977465588hqfhhhspariapsvsd",
"Mnngw75555999wwq09wnwvnnmBNNNnnjvjsjitttr3tubbKKHHBnvvpsssitwiskxkr,;&>&**=-,6,99pjhkstvsjhh8758668e888888888888qqphkpupippsssss",
"jggg09@@4:599wiiw9<9wwvnNmmmnnjnjnppptt9<rtsbDKTTTBBnnsvvvi9rpmmxkr,>=>===-rr2,29ipppippsjhq887888qqhhhhahh8h8h8fihkksppshssjppp",
"ggfg00@5::559qqq9999wwvnmmnmnnngjjpvtspptttsbDKTPDBmmmvmnnswqisjjky6,,>,,<33r,,9rrrriiipkshq884>688q8hhhhhhahhhhjjjkkpphjlkjsi9r",
"wfgfw0<555557qwq99@79pnnnnnjknnnnnjnsnvstttmBBDDBNmnmmDSSNmiwiipsjar,6,e9rrrre<26rr9rqpphjq888686688fhhhhhhhhlhhzzNNkkplnNNlj99,",
"0fffw055<555509q7<7<9wwnngnnnnnnnnnnnmmvvkmNDDNSmmvssmSDDGNkhpsnmvtw5<,99ttttr<<6r6,<9ppahie855>8688ahdhhhhhahhzNNNkzkzlNNllp99:",
"f00f0955@5559999<79w0wwwgvnwnwnnNBNNmNBBmmSDDNBmnspiiubSDHSmnNNNHNn96,:,<tvvupr32-==>9iphhi,>>>6e88888ehdhhhhhhzlNnMkzNNllhpq995",
"wfg000@555599979709ww9wwwwwnnnnnBBBBBNBBHPHDHDNmvpt99tvmSHHLLHPPICnw<:=:<<tvvvpr,-**>,rhaae,>>6eeeq8h88hhdhhahahlkklzNVNljfq7959",
"gqw09077@97900999w9w9099wwwnnvnnBBBBNBHHPHPHDmnmjpr9rtumSFGHBPCITPn9:+*=<<tvvtrre->*=5rrya82>>&,e8aq8ahaahaa8dhdjjkjkzNzjfq95557",
"wih8877707qqqqqwqww9999wwwvvnnvnmmnnBmBDPHHDBmnjwiirpusmSSSGCNNNBBj9,***<<<vtt<tye22-,,,,2,-=>,,eriairaupsuyiiaaskjkjkkjhr856555",
"jhq870700qqqwipwtwwww9q9wptvnvvvvnmnvBmBSDNmmnnwqipuaskvsSmSNNNNNBpw5::>:<<<3333eaeee2,-,---->,2rrrupppuapuyyiaaupsskhjpr865557@",
"piifq000q0qjjppp9iwitwiiipvvvvnnmmnvBmDSSmmsssjwiipusskbkmmNNNnnMBnpi95,<<<<,,<<eeyee222----122yyasbmsssusasasaasuppssai86447@@@",
"pph8q0000wjjjjjq9rrptpppisnmnBBvBmBBDDDmvtpiippppipudsxSSSmnlMkNmnNmnsrr9<-,=--,22eyrr2222--22yyuabSDSbddssxssaarrrrriiq654@@@@5",
"sjhhffffwqjlnzhjiipsvvkskkmBDDDDDDBPHDSmuuiiipsuspusbmSSSNkljjjznNNNNmspye,=*=>,22eey2y32-,12yyudbbKJDbbbbsddaayrreyeaii6844@455",
"kxkkjjgfjpjlNNNNkpsmnmmnNNNDHHDDHTTWRHSvpttiismsspkkmFPPGNkhhjjzMBGNmmmsye,==>=>112e2y232--21yyyuubFJDbbsauuyye22222eraiqq867777",
"ccczNzljhjkzGGHGNkNSNSDNHNPPPHHHTTWWWHmsppppsmmmsjsnNPIIGNjpphjzNNNnmmssre2,>>-212232y31,--,2yyyyubDDSbdauy3e2222222yyaaahqqi8qh",
"LJLGLGNNkhkNSLLHGGGHHBHSNLCPPHDHHHWWWHmmsspsmmmmmkmNNLLLLNjkhhjzNnnsusuuyy2,-22223332222,==>>eyyruubSSvssur322>e-2>222eaahkkkkkj",
"JLIIIPGSzjkSNLILIPPLHBNNGGLLLDDDHHIIPHBmmmkmmBBBmmNNNNVNBMMljkzznkt9<tttuy3113yyuu32231,--=*=23rrpppstssdaee2>>>2ee>212eaxxxxxcc",
"QQQQIPJGkkzSSHHIIUIPLNHNNLLPLGNNDHNBBDDHBNmmBPPCNmmNNNMNNVNMlkkkkp9>=-3tuuy313yyuay321222--*>-2rrrrriipsaaae2>>>eee2>1>2ekxxcxxJ",
"QQIIIHSSSkkSSLPPUTILLHGSGGHILBSNNDmmBDKDHBHHBPPCNNnnnnnNBCNMzjhppi<:=-<3yt311yyyury322222-,*>,2er9q599qi8aee>>;;>e2>>&1=2yadxJJJ",
"QQQcFSSmkkSGHLIIUETLLHLHHHHIISNmSSSmmDTTTHHTTEEPCnlppnnNCACNjhee8r<----1131%11yyrr32211-22,>,>,,9q677999ae44;&&;>>2>1=&==>eyxxxJ",
"JJFSkkskxmSSGIIIIIILHLHKPPPPIHSNmSmsSHTTTPPTTTPCNljppnBDPPCzhq6,2r,-===-111%11uurr,2,,,,-12,6>,5596757958e4>4&o4>>>>>&&&=&1ydddx",
"kkpparttscmSSPIIIIPHPHKRIRWRRPSmmsmmDHWWTTTTTBCNzlhpnmHHTLSkaee-2,,===$=1111%11yre,---,--2,ee>,>,57qqqq98>>>4&o&>ee4>>>===2ydddd",
"6865599rsmSSGGPPLPHHHPRQWWRRPPHNsssSHPTTTTTTTBMlkkjkmDHKDSmsye22,<-=%%%=11-=-1%y6,,---,,-,eee6>::56qhhiq8e44&&&4>8e4>>>>>22yyydy",
";;>:::<9umxmSGGGBSNNDHPIIRIIPHFmsukFIITTPPPTTCCNkkkkvSDDDmuye2221,-====%%%==-11%,,----,,,,eee6::>5qhjqq984444&&>4e8eeee22e22yyyy",
"O*;+:@,6tssSSmSmSSmmSSHHHHHGSmmkupkSPPTTLHPPUULNNkspumSvsuy3223----====%=%%==*&=*-**=-=,,63r,>>>,8ihhq88864>&&Xo58q888a8eeeeeyee",
"$O;:@:>6ruvSmSkkkkmkmmSSmmmmNmkuapkNBPCCBNHIPUUHSsutuuuttr3211--===--===%%=&=##*=*,-,,,,9rr66,55eqhhhq5668>4&4o;78yq888aaaaeeyyy",
"=>,5,:=-2yabSSSSvsspssmvkkmmmksprismNNNNmmmBCNNnsurytyty3311--1--%*->====%==**$**>-862r9qirrr8e8qhqqq6446>4444&;668e8aahaaa8y22y",
",9299<=-2rusSSDSxstriussuskSmsrr9rphkkstsmmkkkptrr<r<<333,1%%%1%%$$*=>=>1====*==>,rrppaiiiiihppshhq844>&44>>>&44;6668ahddaaayyyy",
"rraire2,3rudSSSSutrrrtuuppummur<99rttrrrpptt9t<96<<<r33311-$%%1-%$$-*:-,--,----,-erpkpppihhkkkhhhh884&4&444>>>&;;6ee8accdcdddayy",
"aaaaayyyyusssdsuryryypuprpsskurr3,,63,,,<33,<<,--,<rrr3<<--%$%%-%O*:-<-,eeeree6e89appjpiphkzNzjjhf756;>4&4>4;44:4>4e88hhccccdddd",
"aaaassassddsaur33r3tuuuprrapprr3,------------*====<rytt<<-=$$=-=-+-*:,,ryapupiarriiiirqiihNCCVlf8766644>44;;4;,5>6648hhccccLccdd",
"dkkjksSdbbsdyy333ytuutyrtrprttr3<,,-%---333-----=,3tttt<<--%====***<<<3rakskspiairrrqq9iikNGLNkjh88q87,44&4>44,54466ahcccccQccdd",
"zhhchccdxkssay3rytssstyrapaprury2,---,33ryr333<,,,<3ttrr:--%--==>>,rrrrascmkkspair9r989ipkSLLCNlhhhiqq7::;5:,66,8488hhcVLQLLLLcL",
"zclfchccckSsuyyrusvssyrrpsprptpr33,-,3ytraryryr3,<3ryyr<<=-%--,,>,rruraumSNklspar98669qissNGLGNzhhjjjq55445569668888hlccLZLLLLLZ",
"czllzhzcSGGSSkusmmssparppsssusuurr33rrrtiire333<,-<rttt9<--<<<<<9rpmmkkkmSzkhksupi99riaasskmmnkkjgjlji9555559559888hhhcVcVVZLZZL",
"zzzlhhzcLIIILDnkkmmmkspupksuuskuttyryrrrrree<<<,:<<ttir9<<<r<9rttpmSSNmmmkkhpsskpiiqrspkpkkhkkshjjjjpqq6566655578hffhhhhcVcZZZAA",
"VzchzzhcIUUUIHNNNmNkkksskkkssbkstryyyrrre6e23,,,:<9raiir9t<rrtpusmmGGNNNmkhppsskppiaskkkkkkkppphjjjjswq696657577hffhfhhhlllVZZZZ",
"zzzhhzzcLEUILLSGGGNNnkkmkNxssssurr3r3rer22222<9<<:<tripiiitttskkmmNSNNzkkkkphspaappkkSGGNkkkkpppplmjjiq966555570fhffh88hfhhVcZZZ",
"zczzchzzLLILNNNNLGGNnkmSSSmsssaar<2,22r22222rr9<<9rrtpptptipkkmnNNNNzkhhkkkkkhprarakcSLGGGSzksppjkjljpw8755:457qfffffhh8ffhllVVV",
"zVzzzlzzNCCLNNNNLLGNmkkkzSksraayr,,,22r22222rrr9<999rwpspvssssskkkkkjppippkkkhppaaskkkzNGLGSNkkkkkkjgqq767757700ffflfhhhh8ffllll",
"VzVzzlhlzcczzkzcLLGNnkiajkaaaeee<,,<2rrr2222rrrr9t9trwppjsjssiqrihjjiiqriijkkjksssahphkkSLGGGSmkknhhfqqq96677770ffflhlhhf8h8hhll",
"VzzzzllllzzcklzzNNNNkpiiajayee2e,<,26rr3rrr2ryrarrt99iqpjjjmpr566qrqqrreisskkkakakpirqrpkGGLLNnlkjjjfq7700q6q600fffllclhh888ffhf",
"llzlzllllllhhhajjkkkkpqiiaqeeeeer9rrrrrrrrrrrrpriwtii9ippkmjp85:566r8r6eeishkjakkxsiiqrhkkNCNNlllhjqqq78qqq8678qffllchch88887788",
"llllhhffhlhlhieiripppprqi8e,2ey8trrarrr9rrrrptri99wipr9rssskpr6,,,58eeereiipaskakasiirrisjklMlhhhhjhjfq77qqqq668ffflhhh88848@888",
"lllhhhhlllljai626erapiiie6,22eaaaiprurrrrqriair9999iiirrapsppr6,6>>66eerqripisasskkjhirripjjfffqiqjjhq888q8q888qflhhhchhh8888888",
"lllhhhlllzNzke,,,rrrrriqe,2>2eaeirrpurrriippiiq9559ririrraiiirre,>26errrrreeqakkxxkkhiqqirq887559qqqh887887688qqhhchchhlchhfffff",
"llllhlhcMNGcxe2>-,,rriaree,22eeertirprppiippppq95:5rrrr9999rqrre2,e6eiirree6eijkkSkjjhiq887544+458qii858868588hhlhlhhhccccchchZV",
"VllzccccCPLcxae>2,,2rrrree,,>6earirpappiipwppi97,:,ee6<:,5,98rr8eeeeeeiiire8eipkkjkjkjhf85544+o4468q888557688fhjlcccccccccVcVVcV",
"NNGHLIIITIPFNsrr2,2,rrry22,,>e6e999tipppqwqiipi98,,,,>*;;>,:,66eqrraaaiiiaqrriiriipkjzlh85444;;;56688886>7886hhlkzczNcGGZVcLcLLL",
"NGGPIWWWRIHGSksrr22e2rrr2,2,e26e99iiipqqq9rqiriie,,>>**O**>>>>,8iisaaspphkpiqrrqe8rhjzzh8444;:44668666868888qhhkzzccGGJJLcLLQcJJ",
"SSHPPRIIIPFFxkssrre2rrare2,,>>>59999qqqq999rrirqq8e,,*OO*>>>>,,epsssssskkkharre666qphzgh8454>5,56888665544488ihhkjcccGcGcccccccc",
"NGFGKDJJmSNmkkksare66rpuaee,,>:>5559799qrir99rq9r9e6,>;>;;>;:>8rskxkxskkNNkir6,6668ihhq865566568iiq864444;4668iiakjkkcccccccddcc",
"mkSccxkkkkkksksaarreeihpiee>>>;:,7557599qrrr9rqqqrre,,,:>>*>>,6rajsksdkkNSkpr866888iiff8868688qqihi8654>444468riiijkhxxccchdhaad",
"kkksaxiieaeassasaarrqrspaee>*::5765968qiihiiiqqhipiii87::;;=>,eeiyaauspkNNNjprreriiiiiiqqqr8rerqiiq88666448688ihpsakcdxaadha8aah",
"iarr8ee8,,e8iaasaraeeiiiia6,>>,5999569qihjjhihjhppppaq75:;*,>,eeeyyraiahzzzkkpiijjhpiiiahihphiqihprii88886888rriasaxhdcdhaa88a8a",
"eqq6e6,,>>,eyaksaaaiiaaiir,>=>,557796qiihhfjjjfjhplkhqq7:>>,22eeee2yrrrhjzNkksaphjjkhjhhhkhhihihiwhiihhiq866q8iipsaaaaaaehaeaa88",
"qe6,,6>>4>e8axkssaaariiirq,-,>:56588588qhhhhhjjjjlnkjfqq6-,22222233rrishkzzmnkppjkzkkkkjkllsjsjpjgjjnnzlhq66eerraaairtprrrrr6e82",
"e,6,>&&&&>6aakScxaaaaaprre2,,>:,888588e8qqfhhjjjjllllgq886err232332rraphjkkNNhppjkzkzjjzNNnjjjjjjjlnNNNkjiqe6eeeraarrryr3996,,>,",
"6,>>>&&&&4>eakxckspappppiee6,,::48488848878fhhjjlllljjqqrqrryyr2222rrrpihkzzkjjjkzzcckjklNMljjjnjMnNNNNljhireeeerrrrryr333,,>>>>",
",4>>&&&&&&>eikxkckpippksirrq95::448855444487fjllljhjgiiirrapayrr2226rrqihjjlkjijkzNzzzzkllnjnjsjnMNnnnlNjkppyeeeyrrrtyrr9,,>>=;>",
"6>>>>&&X &;6rakkkkkkpkvjiiiir6:48e888444&4488hlljgjjfhpairaussuyrreriqriqhjjjhjglzzNzzkknzNlnjnlNNnmkjjjjssuyrr3rytutrr39<<->>>>",
"e6e>>&& ##&>,8rasskkkjnjaiihq644>888884444477hhhjjjhhpiirripssksaypiiifqfhjqjjjjjlzkNkNNNnnMNnnnkmnnjsstsksuyyyttuuturrttt9<,,<,",
"eaee&&&&##=>,56rijlNNkkspiaqq55544e888444444888fffjhhspirrraskSssskhjffqwqqqpwpjjjlkmNNNNNNNNMnmnknkspiituuuttuvsvvuprr9vvt9<99t",
"a88>>&&&##=>>,,rrjjnkkspshh88855e888888855578888qhikkppririsssvmSmklgfq77qqqqpfjqfpsknnmNBNNNNnnjkvjsitrtttuusbvDSmvtprtvwtwrtpi",
"xaq,=*****>,,,,9risjjuppshhi88788e88a88h8888qqqqqqjhkpaaiippssssslggfq7:@999v0pwqqwipnnnmBNNmMmsvsjspttt<<tuvSKKHHBnnspppvtiwisp",
"cdy6>=>*==,2r<,99qpppppsskhf078448888hhhifrqqqqqqhpkkspipjkjjttisjgg004+@<@999ww9q99ppmnNmmmmnjjjjssppt9<ttvSDKTTPBBmvssvpiitijn",
"xka6>:,:,,err,,,rrriaiihhjpq8886e888ahhhhqhhifgwhhjkksshjlknji99wwfgw75:<@570ww99699wpjnnnnnnnjljvnppsttrttuSDHTHHBmmmxmnmpwwipp",
"khae9,<<rrrrrr3<99r99rsishi8668488888hhhhhhhhjjjNzNNnkljkMNkpt<97wfgf055@<@@599w96799pjnnnnvnnnnnjjnsknvtusvSDHDBBmnmmDDmmnpiiqq",
"kksr99<<rttttr<,3,,,erhphh88>8558888qhhhhhkhjjjlNNNNkklzMNllp9,570fff75:5@<<@0wn95959wwnnnnwnnnnnnnnnmmmvkmmSNBNvvvsjmSDDNmkppwp",
"GSjr<::<<ttvvty9<,=,>eijkdee>>6>e8a88qihlhkhqjjllzNnzNNzlljhq95590ff0055<@579<7@790wwwwwwnwnnnnnMBBnmmNBBmBDDDmmBvtqiuvSDHDNmmnN",
"ULnq::=:<<vvvvt3,-**&e8iaaee>>>>8e888hqahhaiipsjlnkklNNNljfqq559qww0077:@<@<99@979w9wwqwwwnwnnnnBPBBBBBBHPHHHDNmnpi99tuSFHHHBHHL",
"ICni::**:<tvvttr,,-*>,eaa8e>>>>6ee8aa88akaaiiippsjljkNNljhq6679qqwww90@777977wv9@v909909wwwnnwnnBBBBmBBLHHHHNNmmpptrrpumSDHLLLBH",
"BBn9::**-<tttyyerr3,>2,,22,-->>2errriiaapuuarpppsskkkjzhh8777578qqfq0777777qqqqww9w9q99qiwvvnvvnvBnmmNNDHHHDmnnjwiituussSSSLBNNN",
"BMvw9>;>:<<33reerrr322,,=,--=>2e3yapppuupriayapappshkkki86854458qjqq700000wqqppiqttwwqq9ipnvnvvvvnvmmmBDDDSmmnjgqiapdsmvsmSNNNnM",
"NNns99,6<<,,,<1e3ry32221,-->>22eyuvbksssssusaauaaaapppaie6444447ihiq77f7qwwijjpwiw9atpqwwpwvvnmvmnmmBmDSmmvjvsjpiituaskmSmmNNNNl",
"MBmmjpiit<,,-=>2,,rryy321,,122yaudbbDSbbbdvskssarrrriaa8844@@@45qijqff@70wfjjjjqqriptppppvvnvBmBBBmBBBSSmspiwppspipsdsSSSmmklnkn",
"BMBNmksur3,*&->1,,2y3y3321,223ydsbbJKFSbsbssssyyyr3reaai86444448ijjhhfffwfjknklhiiisvvsnsnmBDDBDBDDPHDDmuptrrpstpppskxmSSNkjhjnn",
"MBNNmmkut<,--->>,,233333>1>12yydusbJDSSbduuuyy3r,322eyaii885758fjkjzhhjhfplzNNNmkjskmmmNnmNBPDHDDTTWRHmvupiippsmspskSSLHHNkphjjz",
"NNNmmmksyr2,121122233y221>->2yyyyudDJSSauuy33322,222eyaaiaqhhadxxcccczkjjpkzSLLSSNmmNSNSNNLPPHDHHTWWWHmutpppsmmmsskmNLIILNlpphjj",
"MNnssusuyr2-111123233222>1--113ytuuvSbvsauy32,--,-22e2eahhkjhddxcLJLLLGNkhkNNGPPGGHGHHDGHLPIPHHDHTWWWHBmspskmmmmnknmNPILNNkhhhjl",
"nli9<rttuy3113yyyyy322221>>&,1yyaiappspsaayee>,>2e,2,>2yadxccxxxJKIIIILGkkkmSHPPILPHBBGNNHLLLBSHDHIPPBBmmvmmmDBBNnnNNNNBNNMljjkk",
"si9,-<3yuyy%%yyuuyy221211>,&=,,eriqrqippaaye2>>;66e2,==2addcxxxJIIQIIIGSkkmNGLGPIIICLLNNNBLBLHNSDHGDBHHHBBmBBPTBNmNNNNMMNCNMlkkj",
"pi<,-:13y33111uuuyy2212211,,>>22erq699iiai8e>&;4>e,2====2yadxxQJQQQIJGSSmmkNSHIIIEUPLBGGLGLIINmmSGNmNDHHBBDBHPACBNnnnMMNCCNNkhsi",
"99,,---133311yyyyye21,,-122&,>>e68665999ee6>;;&4>,,>==&==>eyxxxQQQIKFGSmmxSSLLIIEEPPHHLHGPHIIDNSSSmmmDTTHPPPITTCNznpsjMBCCCMji8e",
"9<<*=---111%113rrr,2-2-,12266>,,6575868886>>4oo&>>2>>=&===1yddFFcJJcmsskkmSSHIPIIPPPLHHKIPIIIDmmSSkvmDRRTPTTTPULNljppvmBLPGjh8e,",
"<<--*%$%=11-122r393-2-,,--2ee6,5658888ie665;&oo&>>662>===>2eyadxxapartrusSNSSPIIILLHHKPIIIRRTLNmssxSDTRRTTTTTPCNNljsmmBHPPckae2,",
"<<<--$-%11-=-22236,,-,-,,22ee6,>668qhiq8e6>;oo&;6e8>e>>=>12eyyayr95,559isSSNSHPPLHHGHIRRWQRRTIHmksvSHTRWTTTEPCNNnklnvDDTHDxayy22",
"<1--$-$%%1===-,2er2--,,,,-eyee65,,8hhhq88,5;&oo;>8ee>2>>>,2eyyrr9,:::,,ruxSSGHIHHHGGFIQWWWWRRILSkuvBKTRWWWTTTCNNnlkkBDKKKGxyy22>"
};
